{
	"asset":{
		"generator":"Khronos glTF Blender I/O v3.6.27",
		"version":"2.0"
	},
	"scene":0,
	"scenes":[
		{
			"name":"Scene",
			"nodes":[
				4,
				9,
				11,
				13
			]
		}
	],
	"nodes":[
		{
			"mesh":0,
			"name":"Glass",
			"rotation":[
				-1,
				0,
				0,
				1.4901161193847656e-08
			],
			"translation":[
				-0.00315487221814692,
				0.6885063648223877,
				-0.15346850454807281
			]
		},
		{
			"mesh":1,
			"name":"Body_2",
			"rotation":[
				-1,
				0,
				0,
				1.4901161193847656e-08
			],
			"translation":[
				-0.4592374563217163,
				-0.9421292543411255,
				0.14469656348228455
			]
		},
		{
			"mesh":2,
			"name":"Rubber",
			"rotation":[
				0,
				0,
				-0.17348860204219818,
				0.9848358631134033
			],
			"translation":[
				-0.601347804069519,
				-0.9765080213546753,
				0.13586050271987915
			]
		},
		{
			"children":[
				0,
				1,
				2
			],
			"mesh":3,
			"name":"Body_1",
			"rotation":[
				0.7071068286895752,
				0,
				0,
				0.7071068286895752
			]
		},
		{
			"children":[
				3
			],
			"name":"Bud Left",
			"rotation":[
				0,
				-0.8191519975662231,
				-0.5735765099525452,
				2.1269364935960766e-07
			],
			"translation":[
				0.9000000357627869,
				1.1116597652435303,
				-0.014435075223445892
			]
		},
		{
			"mesh":0,
			"name":"Glass",
			"rotation":[
				-1,
				0,
				0,
				1.4901161193847656e-08
			],
			"translation":[
				-0.0031549350824207067,
				0.6885063052177429,
				-0.15346847474575043
			]
		},
		{
			"mesh":1,
			"name":"Body_2",
			"rotation":[
				-1,
				0,
				0,
				1.4901161193847656e-08
			],
			"translation":[
				-0.4592374563217163,
				-0.9421293139457703,
				0.14469657838344574
			]
		},
		{
			"mesh":2,
			"name":"Rubber",
			"rotation":[
				0,
				0,
				-0.17348860204219818,
				0.9848358631134033
			],
			"translation":[
				-0.601347804069519,
				-0.9765080809593201,
				0.13586051762104034
			]
		},
		{
			"children":[
				5,
				6,
				7
			],
			"mesh":3,
			"name":"Body_1",
			"rotation":[
				0.7071068286895752,
				0,
				0,
				0.7071068286895752
			]
		},
		{
			"children":[
				8
			],
			"name":"Bud Right",
			"rotation":[
				0,
				0.5735765099525452,
				-0.8191519975662231,
				1.9714443411089633e-08
			],
			"scale":[
				-1,
				-1,
				-1
			],
			"translation":[
				-0.8999999761581421,
				1.1116597652435303,
				-0.014435075223445892
			]
		},
		{
			"mesh":4,
			"name":"Case Top.002",
			"translation":[
				0,
				0.863513171672821,
				1.1577584743499756
			]
		},
		{
			"children":[
				10
			],
			"name":"Case Top"
		},
		{
			"mesh":5,
			"name":"Case Bottom.002"
		},
		{
			"children":[
				12
			],
			"name":"Case Bottom"
		}
	],
	"animations":[
		{
			"channels":[
				{
					"sampler":0,
					"target":{
						"node":4,
						"path":"translation"
					}
				},
				{
					"sampler":1,
					"target":{
						"node":4,
						"path":"rotation"
					}
				}
			],
			"name":"rotation_bud_left",
			"samplers":[
				{
					"input":24,
					"interpolation":"LINEAR",
					"output":25
				},
				{
					"input":24,
					"interpolation":"LINEAR",
					"output":26
				}
			]
		},
		{
			"channels":[
				{
					"sampler":0,
					"target":{
						"node":9,
						"path":"translation"
					}
				},
				{
					"sampler":1,
					"target":{
						"node":9,
						"path":"rotation"
					}
				}
			],
			"name":"rotation_bud_right",
			"samplers":[
				{
					"input":24,
					"interpolation":"LINEAR",
					"output":27
				},
				{
					"input":24,
					"interpolation":"LINEAR",
					"output":28
				}
			]
		},
		{
			"channels":[
				{
					"sampler":0,
					"target":{
						"node":10,
						"path":"rotation"
					}
				}
			],
			"name":"opening",
			"samplers":[
				{
					"input":29,
					"interpolation":"LINEAR",
					"output":30
				}
			]
		}
	],
	"meshes":[
		{
			"name":"Sphere.005",
			"primitives":[
				{
					"attributes":{
						"POSITION":0,
						"NORMAL":1,
						"TEXCOORD_0":2
					},
					"indices":3
				}
			]
		},
		{
			"name":"Circle.004",
			"primitives":[
				{
					"attributes":{
						"POSITION":4,
						"NORMAL":5,
						"TEXCOORD_0":6
					},
					"indices":7
				}
			]
		},
		{
			"name":"Sphere.001",
			"primitives":[
				{
					"attributes":{
						"POSITION":8,
						"NORMAL":9,
						"TEXCOORD_0":10
					},
					"indices":11
				}
			]
		},
		{
			"name":"Circle.003",
			"primitives":[
				{
					"attributes":{
						"POSITION":12,
						"NORMAL":13,
						"TEXCOORD_0":14
					},
					"indices":15
				}
			]
		},
		{
			"name":"Circle.001",
			"primitives":[
				{
					"attributes":{
						"POSITION":16,
						"NORMAL":17,
						"TEXCOORD_0":18
					},
					"indices":19
				}
			]
		},
		{
			"name":"Circle.002",
			"primitives":[
				{
					"attributes":{
						"POSITION":20,
						"NORMAL":21,
						"TEXCOORD_0":22
					},
					"indices":23
				}
			]
		}
	],
	"accessors":[
		{
			"bufferView":0,
			"componentType":5126,
			"count":372,
			"max":[
				0.4999995529651642,
				0.02856132760643959,
				0.8430048823356628
			],
			"min":[
				-0.4999998211860657,
				-0.021093573421239853,
				-0.8430046439170837
			],
			"type":"VEC3"
		},
		{
			"bufferView":1,
			"componentType":5126,
			"count":372,
			"type":"VEC3"
		},
		{
			"bufferView":2,
			"componentType":5126,
			"count":372,
			"type":"VEC2"
		},
		{
			"bufferView":3,
			"componentType":5123,
			"count":1632,
			"type":"SCALAR"
		},
		{
			"bufferView":4,
			"componentType":5126,
			"count":756,
			"max":[
				1.2497761249542236,
				0.440731406211853,
				0.7767471075057983
			],
			"min":[
				-0.48420578241348267,
				-0.2946127653121948,
				-0.8232529163360596
			],
			"type":"VEC3"
		},
		{
			"bufferView":5,
			"componentType":5126,
			"count":756,
			"type":"VEC3"
		},
		{
			"bufferView":6,
			"componentType":5126,
			"count":756,
			"type":"VEC2"
		},
		{
			"bufferView":7,
			"componentType":5123,
			"count":3144,
			"type":"SCALAR"
		},
		{
			"bufferView":8,
			"componentType":5126,
			"count":1170,
			"max":[
				0.5740633606910706,
				0.17104703187942505,
				0.574064314365387
			],
			"min":[
				-0.5740647912025452,
				-0.579505205154419,
				-0.5740641951560974
			],
			"type":"VEC3"
		},
		{
			"bufferView":9,
			"componentType":5126,
			"count":1170,
			"type":"VEC3"
		},
		{
			"bufferView":10,
			"componentType":5126,
			"count":1170,
			"type":"VEC2"
		},
		{
			"bufferView":11,
			"componentType":5123,
			"count":4608,
			"type":"SCALAR"
		},
		{
			"bufferView":12,
			"componentType":5126,
			"count":630,
			"max":[
				0.7904095649719238,
				0.6599447727203369,
				0.9950632452964783
			],
			"min":[
				-0.804987907409668,
				-0.6475163698196411,
				-1.0746437311172485
			],
			"type":"VEC3"
		},
		{
			"bufferView":13,
			"componentType":5126,
			"count":630,
			"type":"VEC3"
		},
		{
			"bufferView":14,
			"componentType":5126,
			"count":630,
			"type":"VEC2"
		},
		{
			"bufferView":15,
			"componentType":5123,
			"count":3264,
			"type":"SCALAR"
		},
		{
			"bufferView":16,
			"componentType":5126,
			"count":2185,
			"max":[
				2.332374334335327,
				2.293023109436035,
				0.10011079907417297
			],
			"min":[
				-2.332374334335327,
				-0.3471754193305969,
				-2.415627956390381
			],
			"type":"VEC3"
		},
		{
			"bufferView":17,
			"componentType":5126,
			"count":2185,
			"type":"VEC3"
		},
		{
			"bufferView":18,
			"componentType":5126,
			"count":2185,
			"type":"VEC2"
		},
		{
			"bufferView":19,
			"componentType":5123,
			"count":11439,
			"type":"SCALAR"
		},
		{
			"bufferView":20,
			"componentType":5126,
			"count":3845,
			"max":[
				2.332374334335327,
				1.2571179866790771,
				1.2578692436218262
			],
			"min":[
				-2.332374334335327,
				-3.1388421058654785,
				-1.2578693628311157
			],
			"type":"VEC3"
		},
		{
			"bufferView":21,
			"componentType":5126,
			"count":3845,
			"type":"VEC3"
		},
		{
			"bufferView":22,
			"componentType":5126,
			"count":3845,
			"type":"VEC2"
		},
		{
			"bufferView":23,
			"componentType":5123,
			"count":16668,
			"type":"SCALAR"
		},
		{
			"bufferView":24,
			"componentType":5126,
			"count":60,
			"max":[
				2.5
			],
			"min":[
				0.041666666666666664
			],
			"type":"SCALAR"
		},
		{
			"bufferView":25,
			"componentType":5126,
			"count":60,
			"type":"VEC3"
		},
		{
			"bufferView":26,
			"componentType":5126,
			"count":60,
			"type":"VEC4"
		},
		{
			"bufferView":27,
			"componentType":5126,
			"count":60,
			"type":"VEC3"
		},
		{
			"bufferView":28,
			"componentType":5126,
			"count":60,
			"type":"VEC4"
		},
		{
			"bufferView":29,
			"componentType":5126,
			"count":50,
			"max":[
				2.0833333333333335
			],
			"min":[
				0.041666666666666664
			],
			"type":"SCALAR"
		},
		{
			"bufferView":30,
			"componentType":5126,
			"count":50,
			"type":"VEC4"
		}
	],
	"bufferViews":[
		{
			"buffer":0,
			"byteLength":4464,
			"byteOffset":0,
			"target":34962
		},
		{
			"buffer":0,
			"byteLength":4464,
			"byteOffset":4464,
			"target":34962
		},
		{
			"buffer":0,
			"byteLength":2976,
			"byteOffset":8928,
			"target":34962
		},
		{
			"buffer":0,
			"byteLength":3264,
			"byteOffset":11904,
			"target":34963
		},
		{
			"buffer":0,
			"byteLength":9072,
			"byteOffset":15168,
			"target":34962
		},
		{
			"buffer":0,
			"byteLength":9072,
			"byteOffset":24240,
			"target":34962
		},
		{
			"buffer":0,
			"byteLength":6048,
			"byteOffset":33312,
			"target":34962
		},
		{
			"buffer":0,
			"byteLength":6288,
			"byteOffset":39360,
			"target":34963
		},
		{
			"buffer":0,
			"byteLength":14040,
			"byteOffset":45648,
			"target":34962
		},
		{
			"buffer":0,
			"byteLength":14040,
			"byteOffset":59688,
			"target":34962
		},
		{
			"buffer":0,
			"byteLength":9360,
			"byteOffset":73728,
			"target":34962
		},
		{
			"buffer":0,
			"byteLength":9216,
			"byteOffset":83088,
			"target":34963
		},
		{
			"buffer":0,
			"byteLength":7560,
			"byteOffset":92304,
			"target":34962
		},
		{
			"buffer":0,
			"byteLength":7560,
			"byteOffset":99864,
			"target":34962
		},
		{
			"buffer":0,
			"byteLength":5040,
			"byteOffset":107424,
			"target":34962
		},
		{
			"buffer":0,
			"byteLength":6528,
			"byteOffset":112464,
			"target":34963
		},
		{
			"buffer":0,
			"byteLength":26220,
			"byteOffset":118992,
			"target":34962
		},
		{
			"buffer":0,
			"byteLength":26220,
			"byteOffset":145212,
			"target":34962
		},
		{
			"buffer":0,
			"byteLength":17480,
			"byteOffset":171432,
			"target":34962
		},
		{
			"buffer":0,
			"byteLength":22878,
			"byteOffset":188912,
			"target":34963
		},
		{
			"buffer":0,
			"byteLength":46140,
			"byteOffset":211792,
			"target":34962
		},
		{
			"buffer":0,
			"byteLength":46140,
			"byteOffset":257932,
			"target":34962
		},
		{
			"buffer":0,
			"byteLength":30760,
			"byteOffset":304072,
			"target":34962
		},
		{
			"buffer":0,
			"byteLength":33336,
			"byteOffset":334832,
			"target":34963
		},
		{
			"buffer":0,
			"byteLength":240,
			"byteOffset":368168
		},
		{
			"buffer":0,
			"byteLength":720,
			"byteOffset":368408
		},
		{
			"buffer":0,
			"byteLength":960,
			"byteOffset":369128
		},
		{
			"buffer":0,
			"byteLength":720,
			"byteOffset":370088
		},
		{
			"buffer":0,
			"byteLength":960,
			"byteOffset":370808
		},
		{
			"buffer":0,
			"byteLength":200,
			"byteOffset":371768
		},
		{
			"buffer":0,
			"byteLength":800,
			"byteOffset":371968
		}
	],
	"buffers":[
		{
			"byteLength":372768,
			"uri":"data:application/octet-stream;base64,"
		}
	]
}
